<mxfile host="app.diagrams.net" agent="Mozilla/5.0 (Windows NT 10.0; Win64; x64; rv:144.0) Gecko/20100101 Firefox/144.0" version="28.2.5">
  <diagram name="Page-1" id="ZAJxCy9UpNBgk7UO9xpd">
    <mxGraphModel dx="1790" dy="1656" grid="1" gridSize="10" guides="1" tooltips="1" connect="1" arrows="1" fold="1" page="1" pageScale="1" pageWidth="827" pageHeight="1169" math="0" shadow="0">
      <root>
        <mxCell id="0" />
        <mxCell id="1" parent="0" />
        <mxCell id="fRqiLNEErDv1-o9UYtsq-18" value="" style="ellipse;shape=cloud;whiteSpace=wrap;html=1;align=center;" parent="1" vertex="1">
          <mxGeometry x="-40" y="-20" width="680" height="330" as="geometry" />
        </mxCell>
        <mxCell id="fRqiLNEErDv1-o9UYtsq-42" value="Backend container" style="verticalAlign=top;align=left;spacingTop=8;spacingLeft=2;spacingRight=12;shape=cube;size=10;direction=south;fontStyle=4;html=1;whiteSpace=wrap;" parent="1" vertex="1">
          <mxGeometry x="290" y="70" width="260" height="90" as="geometry" />
        </mxCell>
        <mxCell id="fRqiLNEErDv1-o9UYtsq-29" value="ORM" style="html=1;dropTarget=0;whiteSpace=wrap;" parent="1" vertex="1">
          <mxGeometry x="300" y="110" width="90" height="40" as="geometry" />
        </mxCell>
        <mxCell id="fRqiLNEErDv1-o9UYtsq-30" value="" style="shape=module;jettyWidth=8;jettyHeight=4;" parent="fRqiLNEErDv1-o9UYtsq-29" vertex="1">
          <mxGeometry x="1" width="20" height="20" relative="1" as="geometry">
            <mxPoint x="-27" y="7" as="offset" />
          </mxGeometry>
        </mxCell>
        <mxCell id="fRqiLNEErDv1-o9UYtsq-40" style="edgeStyle=orthogonalEdgeStyle;rounded=0;orthogonalLoop=1;jettySize=auto;html=1;exitX=0;exitY=0.5;exitDx=0;exitDy=0;entryX=1;entryY=0.5;entryDx=0;entryDy=0;" parent="1" source="fRqiLNEErDv1-o9UYtsq-32" target="fRqiLNEErDv1-o9UYtsq-29" edge="1">
          <mxGeometry relative="1" as="geometry" />
        </mxCell>
        <mxCell id="fRqiLNEErDv1-o9UYtsq-41" value="code" style="edgeLabel;html=1;align=center;verticalAlign=middle;resizable=0;points=[];" parent="fRqiLNEErDv1-o9UYtsq-40" vertex="1" connectable="0">
          <mxGeometry x="0.3709" y="-1" relative="1" as="geometry">
            <mxPoint x="11" y="-9" as="offset" />
          </mxGeometry>
        </mxCell>
        <mxCell id="fRqiLNEErDv1-o9UYtsq-32" value="Server" style="html=1;dropTarget=0;whiteSpace=wrap;" parent="1" vertex="1">
          <mxGeometry x="430" y="110" width="100" height="40" as="geometry" />
        </mxCell>
        <mxCell id="fRqiLNEErDv1-o9UYtsq-33" value="" style="shape=module;jettyWidth=8;jettyHeight=4;" parent="fRqiLNEErDv1-o9UYtsq-32" vertex="1">
          <mxGeometry x="1" width="20" height="20" relative="1" as="geometry">
            <mxPoint x="-27" y="7" as="offset" />
          </mxGeometry>
        </mxCell>
        <mxCell id="fRqiLNEErDv1-o9UYtsq-34" value="Render.com" style="text;align=center;fontStyle=1;verticalAlign=middle;spacingLeft=3;spacingRight=3;strokeColor=none;rotatable=0;points=[[0,0.5],[1,0.5]];portConstraint=eastwest;html=1;" parent="1" vertex="1">
          <mxGeometry x="220" y="30" width="80" height="26" as="geometry" />
        </mxCell>
        <mxCell id="fRqiLNEErDv1-o9UYtsq-35" value="" style="group" parent="1" vertex="1" connectable="0">
          <mxGeometry x="70" y="70" width="120" height="90" as="geometry" />
        </mxCell>
        <mxCell id="fRqiLNEErDv1-o9UYtsq-25" value="DB container" style="verticalAlign=top;align=left;spacingTop=8;spacingLeft=2;spacingRight=12;shape=cube;size=10;direction=south;fontStyle=4;html=1;whiteSpace=wrap;" parent="fRqiLNEErDv1-o9UYtsq-35" vertex="1">
          <mxGeometry width="119.99999999999999" height="90" as="geometry" />
        </mxCell>
        <mxCell id="fRqiLNEErDv1-o9UYtsq-27" value="DB" style="html=1;dropTarget=0;whiteSpace=wrap;" parent="fRqiLNEErDv1-o9UYtsq-35" vertex="1">
          <mxGeometry x="10.909090909090908" y="40" width="87.27272727272727" height="40" as="geometry" />
        </mxCell>
        <mxCell id="fRqiLNEErDv1-o9UYtsq-28" value="" style="shape=module;jettyWidth=8;jettyHeight=4;" parent="fRqiLNEErDv1-o9UYtsq-27" vertex="1">
          <mxGeometry x="1" width="20" height="20" relative="1" as="geometry">
            <mxPoint x="-27" y="7" as="offset" />
          </mxGeometry>
        </mxCell>
        <mxCell id="fRqiLNEErDv1-o9UYtsq-36" style="edgeStyle=orthogonalEdgeStyle;rounded=0;orthogonalLoop=1;jettySize=auto;html=1;exitX=0;exitY=0.5;exitDx=0;exitDy=0;entryX=1;entryY=0.5;entryDx=0;entryDy=0;" parent="1" source="fRqiLNEErDv1-o9UYtsq-29" target="fRqiLNEErDv1-o9UYtsq-27" edge="1">
          <mxGeometry relative="1" as="geometry" />
        </mxCell>
        <mxCell id="fRqiLNEErDv1-o9UYtsq-37" value="SQL over TCP/IP" style="edgeLabel;html=1;align=center;verticalAlign=middle;resizable=0;points=[];" parent="fRqiLNEErDv1-o9UYtsq-36" vertex="1" connectable="0">
          <mxGeometry x="0.3004" y="1" relative="1" as="geometry">
            <mxPoint x="26" y="-11" as="offset" />
          </mxGeometry>
        </mxCell>
        <mxCell id="fRqiLNEErDv1-o9UYtsq-50" value="Client&#39;s device (web page)" style="verticalAlign=top;align=left;spacingTop=8;spacingLeft=2;spacingRight=12;shape=cube;size=10;direction=south;fontStyle=4;html=1;whiteSpace=wrap;" parent="1" vertex="1">
          <mxGeometry x="255" y="340" width="180" height="55" as="geometry" />
        </mxCell>
        <mxCell id="k8a4Nd1ExdKyHiOa-4tq-1" value="&lt;div&gt;Frontend container&lt;/div&gt;" style="verticalAlign=top;align=left;spacingTop=8;spacingLeft=2;spacingRight=12;shape=cube;size=10;direction=south;fontStyle=4;html=1;whiteSpace=wrap;" vertex="1" parent="1">
          <mxGeometry x="240" y="180" width="200" height="90" as="geometry" />
        </mxCell>
        <mxCell id="k8a4Nd1ExdKyHiOa-4tq-2" value="Nginx serving React" style="html=1;dropTarget=0;whiteSpace=wrap;" vertex="1" parent="1">
          <mxGeometry x="250" y="220" width="170" height="40" as="geometry" />
        </mxCell>
        <mxCell id="k8a4Nd1ExdKyHiOa-4tq-3" value="" style="shape=module;jettyWidth=8;jettyHeight=4;" vertex="1" parent="k8a4Nd1ExdKyHiOa-4tq-2">
          <mxGeometry x="1" width="20" height="20" relative="1" as="geometry">
            <mxPoint x="-27" y="7" as="offset" />
          </mxGeometry>
        </mxCell>
        <mxCell id="k8a4Nd1ExdKyHiOa-4tq-5" value="" style="curved=1;endArrow=classic;html=1;rounded=0;exitX=1;exitY=0.5;exitDx=0;exitDy=0;entryX=0.5;entryY=1;entryDx=0;entryDy=0;startArrow=classic;startFill=1;" edge="1" parent="1" source="k8a4Nd1ExdKyHiOa-4tq-2" target="fRqiLNEErDv1-o9UYtsq-32">
          <mxGeometry width="50" height="50" relative="1" as="geometry">
            <mxPoint x="450" y="290" as="sourcePoint" />
            <mxPoint x="500" y="240" as="targetPoint" />
            <Array as="points">
              <mxPoint x="460" y="260" />
              <mxPoint x="500" y="170" />
            </Array>
          </mxGeometry>
        </mxCell>
        <mxCell id="k8a4Nd1ExdKyHiOa-4tq-6" value="&lt;div&gt;HTTPS&lt;/div&gt;" style="edgeLabel;html=1;align=center;verticalAlign=middle;resizable=0;points=[];" vertex="1" connectable="0" parent="k8a4Nd1ExdKyHiOa-4tq-5">
          <mxGeometry x="0.012" y="1" relative="1" as="geometry">
            <mxPoint as="offset" />
          </mxGeometry>
        </mxCell>
        <mxCell id="k8a4Nd1ExdKyHiOa-4tq-7" value="" style="endArrow=classic;startArrow=classic;html=1;rounded=0;exitX=0.035;exitY=0.541;exitDx=0;exitDy=0;exitPerimeter=0;entryX=0.5;entryY=1;entryDx=0;entryDy=0;" edge="1" parent="1" source="fRqiLNEErDv1-o9UYtsq-50" target="k8a4Nd1ExdKyHiOa-4tq-2">
          <mxGeometry width="50" height="50" relative="1" as="geometry">
            <mxPoint x="290" y="330" as="sourcePoint" />
            <mxPoint x="340" y="280" as="targetPoint" />
          </mxGeometry>
        </mxCell>
        <mxCell id="k8a4Nd1ExdKyHiOa-4tq-8" value="REST API" style="edgeLabel;html=1;align=center;verticalAlign=middle;resizable=0;points=[];" vertex="1" connectable="0" parent="k8a4Nd1ExdKyHiOa-4tq-7">
          <mxGeometry x="-0.1659" y="-1" relative="1" as="geometry">
            <mxPoint as="offset" />
          </mxGeometry>
        </mxCell>
      </root>
    </mxGraphModel>
  </diagram>
</mxfile>
